<?xml version="1.0" encoding="UTF-8" standalone="no" ?>
<!DOCTYPE svg PUBLIC "-//W3C//DTD SVG 1.1//EN" "http://www.w3.org/Graphics/SVG/1.1/DTD/svg11.dtd">
<svg xmlns="http://www.w3.org/2000/svg" xmlns:xlink="http://www.w3.org/1999/xlink" version="1.1" width="1080" height="1080" viewBox="0 0 1080 1080" xml:space="preserve">
<desc>Created with Fabric.js 5.2.4</desc>
<defs>
</defs>
<g transform="matrix(1 0 0 1 540 540)" id="29e4f483-215a-471b-97a6-99bdccb09f6f"  >
<rect style="stroke: none; stroke-width: 1; stroke-dasharray: none; stroke-linecap: butt; stroke-dashoffset: 0; stroke-linejoin: miter; stroke-miterlimit: 4; fill: rgb(255,255,255); fill-rule: nonzero; opacity: 1; visibility: hidden;" vector-effect="non-scaling-stroke"  x="-540" y="-540" rx="0" ry="0" width="1080" height="1080" />
</g>
<g transform="matrix(1 0 0 1 540 540)" id="d244ae19-53d4-45ac-8059-f4382723486d"  >
</g>
<g transform="matrix(1 0 0 1 540 540)"  >
<g style="" vector-effect="non-scaling-stroke"   >
		<g transform="matrix(1 0 0 1 0 0)"  >
<path style="stroke: none; stroke-width: 1; stroke-dasharray: none; stroke-linecap: butt; stroke-dashoffset: 0; stroke-linejoin: miter; stroke-miterlimit: 4; fill: rgb(188,188,188); fill-rule: nonzero; opacity: 1;" vector-effect="non-scaling-stroke"  transform=" translate(-252, -224)" d="M 411.8 9 L 92.2 9 C 61.8 9 37 33.8 37 64.2 L 37 383.8 C 37 414.2 61.8 439 92.2 439 L 411.8 439 C 442.2 439 467 414.2 467 383.8 L 467 64.2 C 467 33.8 442.2 9 411.8 9 z M 92.2 38.1 L 411.8 38.1 C 426.2 38.1 437.90000000000003 49.8 437.90000000000003 64.2 L 437.90000000000003 196.60000000000002 L 383.20000000000005 141.90000000000003 C 373.50000000000006 132.20000000000005 357.80000000000007 132.30000000000004 348.1 142.10000000000002 L 244.2 246 L 197.29999999999998 199.1 C 187.6 189.4 171.89999999999998 189.5 162.2 199.29999999999998 L 66.1 295.4 L 66.1 64.2 C 66.1 49.8 77.8 38.1 92.2 38.1 z" stroke-linecap="round" />
</g>
		<g transform="matrix(1 0 0 1 -79.6 -89.3)"  >
<circle style="stroke: none; stroke-width: 1; stroke-dasharray: none; stroke-linecap: butt; stroke-dashoffset: 0; stroke-linejoin: miter; stroke-miterlimit: 4; fill: rgb(188,188,188); fill-rule: nonzero; opacity: 1;" vector-effect="non-scaling-stroke"  cx="0" cy="0" r="40.5" />
</g>
</g>
</g>
</svg>