<?xml version="1.0" encoding="utf-8"?>
<!-- Generator: Adobe Illustrator 27.7.0, SVG Export Plug-In . SVG Version: 6.00 Build 0)  -->
<svg version="1.1" xmlns="http://www.w3.org/2000/svg" xmlns:xlink="http://www.w3.org/1999/xlink" x="0px" y="0px"
	 viewBox="0 0 277 234" style="enable-background:new 0 0 277 234;" xml:space="preserve">
<style type="text/css">
	.st0{display:none;}
	.st1{fill-rule:evenodd;clip-rule:evenodd;fill:#BCBCBC;}
	.st2{fill:#BCBCBC;}
</style>
<g id="Laag_2">
	<g class="st0">
		
			<image style="display:inline;overflow:visible;" width="5" height="8" xlink:href="D03EA908.png"  transform="matrix(72 0 0 72 -138 -202)">
		</image>
	</g>
	<path class="st1" d="M265.9,12.7c-0.7,0-1.3,0.2-1.9,0.5l-48.9,34.2c-1.7,0.8-2.7,2.5-2.7,4.4v50.5c0,1.9,1.1,3.5,2.7,4.4
		l48.9,34.2c3.2,1.6,7.1-0.7,7.1-4.4V17.5C271,14.7,268.6,12.5,265.9,12.7z"/>
	<g>
		<path class="st2" d="M120.7,137.3c-2.3-23.7-21.8-42.6-45.5-44.1c-4.5-0.3-9,0-13.2,0.8v36.4c0,7.5,6.1,13.6,13.6,13.6h45.3
			C121,141.8,120.9,139.6,120.7,137.3z"/>
		<path class="st2" d="M191.4,9H75.6C68.1,9,62,15.1,62,22.6v55.1c1.6-0.2,3.1-0.4,4.7-0.5c38.1-2.8,70,27.4,70,64.9
			c0,0.6,0,1.3,0,1.9h54.7c7.5,0,13.6-6.1,13.6-13.6V22.6C205,15.1,198.9,9,191.4,9z"/>
		<path class="st2" d="M6.9,137c-2.9,38,26.9,69.7,64.1,70v11.7c0,3.4,3.7,5.5,6.6,3.7l31.5-19.5c2.8-1.7,2.8-5.7,0-7.4l-31.4-19.7
			c-2.9-1.8-6.6,0.3-6.6,3.7v11.7c-0.2,0-0.3,0-0.3,0c-26.3-0.5-48-22.3-48.1-48.6c-0.3-24,16.7-44,39.2-48.5V77.7
			C32.4,82.1,9.1,106.8,6.9,137z"/>
		<path class="st2" d="M111.9,170.5c-1.5,2.2-0.9,5.1,1.4,6.5l6,3.5c2,1.2,4.6,0.6,6-1.2c6.7-10.3,11-22.3,11.3-35.3h-15.7
			C120.6,153.9,117.3,163,111.9,170.5z"/>
	</g>
</g>
<g id="Laag_4">
	<g>
	</g>
	<g>
	</g>
	<g>
	</g>
	<g>
	</g>
	<g>
	</g>
	<g>
	</g>
	<g>
	</g>
	<g>
	</g>
	<g>
	</g>
	<g>
	</g>
	<g>
	</g>
	<g>
	</g>
	<g>
	</g>
	<g>
	</g>
	<g>
	</g>
</g>
</svg>
