<?xml version="1.0" encoding="utf-8"?>
<!-- Generator: Adobe Illustrator 27.8.1, SVG Export Plug-In . SVG Version: 6.00 Build 0)  -->
<svg version="1.1" id="Laag_1" xmlns="http://www.w3.org/2000/svg" xmlns:xlink="http://www.w3.org/1999/xlink" x="0px" y="0px"
	 viewBox="0 0 500 457" style="enable-background:new 0 0 500 457;" xml:space="preserve">
<style type="text/css">
	.st0{fill:none;stroke:#BCBCBC;stroke-width:24.7561;stroke-miterlimit:10;}
	.st1{fill:#BCBCBC;}
	.st2{fill-rule:evenodd;clip-rule:evenodd;fill:#BCBCBC;}
</style>
<g>
	<path class="st0" d="M409.9,16H92.3c-28.2,0-51.1,22.9-51.1,51.1v272.3c0,28.2,22.9,51.1,51.1,51.1h269.1l75,49.4
		c8.4,4.2,18.6,0.8,22.8-7.6c1.2-2.4,1.8-5,1.8-7.7V67.1C461,38.9,438.1,16,409.9,16z"/>
</g>
<path class="st1" d="M248.5,141.6h120.8c9.4,0,17,7.6,17,17c0,9.4-7.6,17-17,17H248.5c-9.4,0-17-7.6-17-17
	C231.5,149.3,239.1,141.6,248.5,141.6z"/>
<path class="st1" d="M386.3,226.7c0,9.4-7.6,17-17,17H131c-9.4,0-17-7.6-17-17c0-9.4,7.6-17,17-17h238.3
	C378.7,209.7,386.3,217.3,386.3,226.7z"/>
<path class="st1" d="M368.6,311.8H131c-9.4,0-17-7.6-17-17c0-9.4,7.6-17,17-17h237.6c9.4,0,18,7.6,18,17
	C386.6,304.2,378,311.8,368.6,311.8z"/>
<g>
	<path class="st2" d="M152.8,59.1c21.3,0,38.7,17.4,38.7,38.7c0,18.9-9.8,29.3-20.1,46l-18.6,29.9l-18.6-29.9
		c-10.4-16.8-20.1-27.1-20.1-46C114.1,76.5,131.5,59.1,152.8,59.1z M152.8,74.9c11.9,0,21.3,9.8,21.3,21.3
		c0,11.9-9.5,21.3-21.3,21.3s-21.3-9.5-21.3-21.3C131.5,84.7,140.9,74.9,152.8,74.9z"/>
</g>
<g>
</g>
<g>
</g>
<g>
</g>
<g>
</g>
<g>
</g>
<g>
</g>
<g>
</g>
<g>
</g>
<g>
</g>
<g>
</g>
<g>
</g>
<g>
</g>
<g>
</g>
<g>
</g>
<g>
</g>
</svg>
