<?xml version="1.0" encoding="utf-8"?>
<!-- Generator: Adobe Illustrator 27.7.0, SVG Export Plug-In . SVG Version: 6.00 Build 0)  -->
<svg version="1.1" xmlns="http://www.w3.org/2000/svg" xmlns:xlink="http://www.w3.org/1999/xlink" x="0px" y="0px"
	 viewBox="0 0 1770.3 1720.1" style="enable-background:new 0 0 1770.3 1720.1;" xml:space="preserve">
<style type="text/css">
	.st0{fill:#BCBCBB;}
	.st1{clip-path:url(#SVGID_00000099653561847358559430000004974244202413106337_);}
	.st2{fill:none;stroke:#BCBCBB;stroke-width:50.9307;stroke-miterlimit:10;}
</style>
<g id="Capa_2">
	<path class="st0" d="M381.1,1592.4l79.5,79.5c13.3,13.3,35,13.3,48.3,0L1703.9,477.1c13.3-13.3,13.3-35,0-48.3l-231.1-231.1
		c-13.3-13.3-35-13.3-48.3,0L229.5,1392.6c-13.3,13.3-13.3,35,0,48.3l24.9,24.9L381.1,1592.4z M1364,355.7l126.7,126.7
		c7.5,7.6,7.7,19.5,0.4,26.7c-7.2,7.2-19,7.1-26.4-0.2L1338,382.1c-7.3-7.3-7.5-19.2-0.2-26.4C1345,348.5,1356.8,348.6,1364,355.7z
		 M1251.9,467.7l92.6,92.6c7.5,7.6,7.7,19.4,0.4,26.7c-7.2,7.2-19,7.1-26.4-0.2l-92.6-92.6c-7.3-7.3-7.5-19.2-0.2-26.4
		C1232.9,460.6,1244.7,460.7,1251.9,467.7z M1133.8,585.9l126.7,126.7c7.5,7.6,7.7,19.4,0.4,26.7c-7.2,7.2-19,7.1-26.4-0.2
		l-126.7-126.7c-7.3-7.3-7.5-19.2-0.2-26.4C1114.8,578.7,1126.6,578.8,1133.8,585.9z M1023.5,696.1l92.6,92.6
		c7.5,7.6,7.7,19.5,0.4,26.7c-7.2,7.2-19,7.1-26.4-0.2l-92.6-92.6c-7.3-7.3-7.5-19.2-0.2-26.4
		C1004.6,688.9,1016.4,689.1,1023.5,696.1z M905.4,814.2l126.7,126.7c7.5,7.6,7.7,19.4,0.4,26.7c-7.2,7.2-19,7.1-26.4-0.2
		L879.5,840.6c-7.3-7.3-7.5-19.2-0.2-26.4C886.5,807.1,898.3,807.2,905.4,814.2z M797.6,922.1l92.6,92.6c7.5,7.6,7.7,19.4,0.4,26.7
		c-7.2,7.2-19,7.1-26.4-0.2l-92.6-92.6c-7.3-7.3-7.5-19.1-0.2-26.4C778.6,914.9,790.4,915,797.6,922.1z M679.4,1040.2l126.7,126.7
		c7.5,7.6,7.7,19.5,0.4,26.7c-7.2,7.2-19,7.1-26.4-0.2l-126.7-126.7c-7.3-7.3-7.5-19.2-0.2-26.4
		C660.5,1033,672.3,1033.1,679.4,1040.2z M579.5,1140.1l92.6,92.6c7.5,7.6,7.7,19.5,0.4,26.7c-7.2,7.2-19,7.1-26.4-0.2l-92.6-92.6
		c-7.3-7.3-7.5-19.1-0.2-26.4C560.5,1133,572.3,1133.1,579.5,1140.1z M474.4,1247.2l126.7,126.7c7.5,7.7,7.7,19.6,0.4,26.8
		c-7.2,7.2-19,7.1-26.4-0.2l-126.7-126.7c-7.3-7.3-7.5-19.1-0.2-26.4C455.4,1240.1,467.2,1240.2,474.4,1247.2z M346.2,1347.4
		c7.2-7.2,19-7.1,26.2-0.1l92.6,92.6c7.5,7.6,7.7,19.5,0.4,26.7c-7.2,7.2-19,7.1-26.4-0.2l-92.6-92.6
		C339.1,1366.4,339,1354.6,346.2,1347.4z"/>
</g>
<g id="Laag_2">
	<g>
		<defs>
			<polygon id="SVGID_1_" points="-94.6,-63.3 1220.4,-63.3 1174.4,320.4 329.5,1165.3 -94.6,1195.3 			"/>
		</defs>
		<clipPath id="SVGID_00000047050214055034488410000010370454640479743380_">
			<use xlink:href="#SVGID_1_"  style="overflow:visible;"/>
		</clipPath>
		<g style="clip-path:url(#SVGID_00000047050214055034488410000010370454640479743380_);">
			<path class="st2" d="M217.7,876.5h660.5c34.4,0,62.3-27.9,62.3-62.3V185.2c0-34.4-27.9-62.3-62.3-62.3H217.7
				c-34.4,0-62.3,27.9-62.3,62.3v628.9C155.4,848.6,183.3,876.5,217.7,876.5z"/>
			<circle class="st0" cx="155.2" cy="137.6" r="99"/>
			<circle class="st0" cx="940.8" cy="137.6" r="99"/>
			<circle class="st0" cx="155.2" cy="853.7" r="99"/>
		</g>
	</g>
	<g>
	</g>
	<g>
	</g>
	<g>
	</g>
	<g>
	</g>
	<g>
	</g>
	<g>
	</g>
</g>
</svg>
