<?xml version="1.0" encoding="utf-8"?>
<!-- Generator: Adobe Illustrator 27.7.0, SVG Export Plug-In . SVG Version: 6.00 Build 0)  -->
<svg version="1.1" id="Laag_2" xmlns="http://www.w3.org/2000/svg" xmlns:xlink="http://www.w3.org/1999/xlink" x="0px" y="0px"
	 viewBox="0 0 1511.3 1543" style="enable-background:new 0 0 1511.3 1543;" xml:space="preserve">
<style type="text/css">
	.st0{fill:#FFFFFF;}
</style>
<path class="st0" d="M1420.7,1239L985.9,804.2c-19.3-18.4-20.1-49-1.8-68.3c0.6-0.6,1.2-1.2,1.8-1.8l434.8-434.8
	c60.3-57.8,62.3-153.5,4.5-213.8c-0.5-0.6-1.1-1.1-1.6-1.7c-58.6-54.5-150.3-51.2-204.8,7.4c-1,1.1-2,2.1-2.9,3.2L781.1,529.3
	c-18.4,19.3-49,20.1-68.3,1.8c-0.6-0.6-1.2-1.2-1.8-1.8L276.2,94.5C218.4,34.2,122.7,32.2,62.4,90c-0.6,0.5-1.1,1.1-1.7,1.6
	C6.2,150.2,9.5,241.9,68.1,296.4c1.1,1,2.1,2,3.2,2.9l434.8,434.8c19.3,18.4,20.1,49,1.8,68.3c-0.6,0.6-1.2,1.2-1.8,1.8L71.4,1239
	c-60.3,57.8-62.3,153.5-4.5,213.8c0.5,0.6,1.1,1.1,1.6,1.7c58.6,54.5,150.3,51.2,204.8-7.4c1-1.1,2-2.1,2.9-3.2L711,1009
	c18.4-19.3,49-20.1,68.3-1.8c0.6,0.6,1.2,1.2,1.8,1.8l434.8,434.8c52.7,60.2,144.3,66.3,204.5,13.5c1.1-1,2.2-1.9,3.2-2.9
	c58.7-59.4,58.2-155.1-1.2-213.8C1421.8,1240.1,1421.3,1239.5,1420.7,1239z"/>
<g>
</g>
<g>
</g>
<g>
</g>
<g>
</g>
<g>
</g>
<g>
</g>
</svg>
