<?xml version="1.0" encoding="utf-8"?>
<!-- Generator: Adobe Illustrator 27.5.0, SVG Export Plug-In . SVG Version: 6.00 Build 0)  -->
<svg version="1.1" xmlns="http://www.w3.org/2000/svg" xmlns:xlink="http://www.w3.org/1999/xlink" x="0px" y="0px"
	 viewBox="0 0 613.4 255.5" style="enable-background:new 0 0 613.4 255.5;" xml:space="preserve">
<style type="text/css">
	.st0{display:none;}
	.st1{display:inline;stroke:#FFFFFF;stroke-width:0.4751;stroke-miterlimit:10;}
	.st2{fill:#FFFFFF;}
	.st3{fill:none;}
	.st4{fill:none;stroke:#FFFFFF;stroke-width:1.9878;stroke-miterlimit:10;}
</style>
<g id="Laag_2" class="st0">
	<rect class="st1" width="613.4" height="255.5"/>
</g>
<g id="Laag_1">
	<path class="st2" d="M288.3,82.2c-1.3,0-8.3,0.2-19.7,5.5V47.3h-22.9v105.4c0,0,16.1,5,29.3,5c13.2,0,42.3-5.8,42.3-40.7
		C317.3,82.1,290,82.2,288.3,82.2 M274,143.5c-1.1,0-3.3-0.3-5.3-0.5V99.1c3.1-0.8,7.4-1,7.4-1s18-2.4,18,22.8
		C294,146.1,274,143.5,274,143.5"/>
	<path class="st2" d="M367,82.1c-12.8,0-31.5,4.9-31.5,4.9v12c0,0,7.9-1.2,22.1-2.2c14.2-1,13.7,7.1,13.7,7.1l0,7.7
		c-4.8-0.5-43.5-3.4-42.2,23.7c0,0-0.8,22.4,22.4,22.4c0,0,10.9,0.4,20.5-5.9v5h21.2v-49.5C393.3,85.9,379.8,82.1,367,82.1
		 M351.2,133.8c0-6.3,2.8-11.2,20.1-11.3l0,19.5c-1.1,0.4-3.9,1.1-8.5,1.1C356.6,143.1,351.2,140.2,351.2,133.8"/>
	<path class="st2" d="M503.4,82c-13.5,0-26.5,5.4-29.2,6.6C470,83.9,463.9,82,458,82c-8.3,0-19.4,4.3-23.7,6.1v-4.5h-22.7v72.9h22.7
		V99.6c3.2-1.1,11-1.4,11-1.4c12.2,0,11.2,8,11.2,8v50.3h23.1v-52.3c0-1.6-0.1-3.2-0.3-4.6c4.7-0.8,11.5-1.4,11.5-1.4
		c12.2,0,11.2,8,11.2,8v50.3H525v-52.3C525,88.1,513.8,82,503.4,82"/>
	<polygon class="st2" points="182,83.3 192.3,51.4 159.4,46.8 140.3,55.3 176.9,61.2 167,96.4 156.9,93.7 162.2,70.6 123.3,62.9 
		98.9,73.7 140.3,84.8 133.3,126.8 119.3,120.6 121.6,96.6 79.6,82.2 38,100.7 81.1,122.3 83.7,170.6 101.2,155.4 149.7,185.5 
		215.9,91 	"/>
	<rect x="27.9" y="25.9" class="st3" width="505.8" height="177"/>
	<rect x="27.9" y="25.9" class="st3" width="505.8" height="177"/>
	<g>
		<path class="st2" d="M262.5,227.9c-2.3,0-4.2-0.4-6.6-1.5v14.9H247v-45.5h8.7v2c4.7-2,6.8-2.6,8.9-2.6c7.8,0,12.7,6,12.7,15.6
			C277.3,220.7,271.1,227.9,262.5,227.9z M260,201.8c-1.3,0-2.6,0.1-4,0.4v19.7c1,0.2,2.1,0.4,3.2,0.4c5.6,0,8.9-3.9,8.9-10.5
			C268,205.3,265.2,201.8,260,201.8z"/>
		<path class="st2" d="M299.8,228.2c-9.8,0-15.7-6-15.7-15.9c0-10.8,5.9-17.2,16.1-17.2c9.8,0,15.7,5.9,15.7,16
			C315.9,221.9,309.9,228.2,299.8,228.2z M300,200.4c-4.4,0-6.7,3.8-6.7,11.2c0,7.6,2.2,11.4,6.6,11.4s6.7-3.8,6.7-11.3
			C306.7,204.2,304.4,200.4,300,200.4z"/>
		<path class="st2" d="M337.8,202.2c-1.2,0-3.3,0.2-4.5,0.6v24.8h-8.9v-31.6h8.7v2.4c3.6-1.8,6.7-2.8,8-2.8c1.4,0,2.4,0.2,3.5,0.7
			v7.4C342.6,202.6,340.4,202.2,337.8,202.2z"/>
		<path class="st2" d="M363.4,227.9c-7,0-9.6-2.6-9.6-9.6v-17.3h-3.9v-5.2h3.9v-6.7l8.9-3.2v9.9h9.1v5.2h-9.1V217
			c0,3.6,1.2,4.8,4.9,4.8c1.3,0,2.3-0.1,4.2-0.4v4.9C367.1,227.6,365.3,227.9,363.4,227.9z"/>
		<path class="st2" d="M396.4,227.5v-2c-4.8,2-6.6,2.5-8.9,2.5c-5.8,0-9.6-3.8-9.6-9.6c0-5.9,3.4-9.2,10.2-9.8
			c2.6-0.2,5-0.4,8.2-0.4v-2.6c0-3.1-1.6-4.4-5.5-4.4c-2.9,0-6.7,0.4-10,1v-4.7c6.1-1.5,10-2.1,13-2.1c3.6,0,6.7,0.9,8.5,2.5
			c2,1.7,2.7,4.1,2.7,8.9v20.9H396.4z M396.1,212.7c-2.9,0.1-3.7,0.1-5,0.3c-2.9,0.4-4.4,2-4.4,4.5c0,3,1.8,4.5,5.4,4.5
			c1.3,0,2.8-0.2,4-0.5V212.7z"/>
		<path class="st2" d="M414.6,227.5v-47.4h8.9v47.4H414.6z"/>
	</g>
	<g>
		<path class="st2" d="M467,220.2c-1.1,0.6-2.1,0.7-4.5,0.7h-6.1v-19.1h6.2c2.6,0,3.6,0.2,4.6,0.9c1.2,0.8,1.8,2.1,1.8,3.7
			c0,2.3-1.6,4.2-3.8,4.5c2.8,0.2,4.5,2.1,4.5,4.6C469.6,217.6,468.6,219.3,467,220.2z M461.8,204.2h-1.6v5.7h1.6c2,0,3-1,3-2.9
			C464.9,205.1,464,204.2,461.8,204.2z M462.3,212.3h-2v6.2h1.9c2.4,0,3.5-1,3.5-3.2C465.5,213.3,464.5,212.3,462.3,212.3z"/>
		<path class="st2" d="M473.4,220.9v-19.1h11.4v2.7h-7.3v5.2h5.8v2.7h-5.8v5.8h7.7v2.7H473.4z"/>
		<path class="st2" d="M496.6,204.6v16.4h-4.1v-16.4h-5.1v-2.7h14.3v2.7H496.6z"/>
		<path class="st2" d="M514.4,220.9l-1.7-5.6h-6.1l-1.6,5.6h-3.6l6.5-19.1h4.6l6.3,19.1H514.4z M509.5,204.9l-2.3,7.9h4.6
			L509.5,204.9z"/>
	</g>
	<path class="st4" d="M521.5,227.5h-69.8c-1.9,0-3.5-1.6-3.5-3.5v-25.7c0-1.9,1.6-3.5,3.5-3.5h69.8c1.9,0,3.5,1.6,3.5,3.5V224
		C525,225.9,523.4,227.5,521.5,227.5z"/>
</g>
<g id="Laag_3">
	<g>
	</g>
	<g>
	</g>
	<g>
	</g>
	<g>
	</g>
	<g>
	</g>
	<g>
	</g>
</g>
</svg>
