<svg width="1920" height="1080" viewBox="0 0 1920 1080" xmlns="http://www.w3.org/2000/svg"><rect width="1920" height="1080" fill="#162754"/><path d="M 0,1080 C 0,1080 0,270 0,270 C 171.46666666666664,253.86666666666667 342.9333333333333,237.73333333333332 551,223 C 759.0666666666667,208.26666666666668 1003.7333333333333,194.93333333333334 1238,203 C 1472.2666666666667,211.06666666666666 1696.1333333333332,240.53333333333333 1920,270 C 1920,270 1920,1080 1920,1080 Z" fill="#233d89" opacity="0.15"/><path d="M 0,1080 C 0,1080 0,540 0,540 C 238.13333333333333,492.1333333333333 476.26666666666665,444.2666666666667 713,468 C 949.7333333333333,491.7333333333333 1185.0666666666666,587.0666666666667 1386,611 C 1586.9333333333334,634.9333333333333 1753.4666666666667,587.4666666666667 1920,540 C 1920,540 1920,1080 1920,1080 Z" fill="#233d89" opacity="0.3"/><path d="M 0,1080 C 0,1080 0,810 0,810 C 182.40000000000003,782.9333333333334 364.80000000000007,755.8666666666667 603,750 C 841.1999999999999,744.1333333333333 1135.1999999999998,759.4666666666666 1364,773 C 1592.8000000000002,786.5333333333334 1756.4,798.2666666666667 1920,810 C 1920,810 1920,1080 1920,1080 Z" fill="#233d89" opacity="0.44999999999999996"/></svg>