<svg width="1920" height="1080" xmlns="http://www.w3.org/2000/svg"><rect id="backgroundrect" width="100%" height="100%" x="0" y="0" fill="none" stroke="none"/><g class="currentLayer" style=""><title>Layer 1</title><rect width="1920" height="1080" fill="#02b043" id="svg_1" class="" y="-4.285714149475098" x="0" opacity="1" fill-opacity="1"/><path d="M 0,1080 C 0,1080 0,270 0,270 C 171.46666666666664,253.86666666666667 342.9333333333333,237.73333333333332 551,223 C 759.0666666666667,208.26666666666668 1003.7333333333333,194.93333333333334 1238,203 C 1472.2666666666667,211.06666666666666 1696.1333333333332,240.53333333333333 1920,270 C 1920,270 1920,1080 1920,1080 Z" fill="#03c24d" opacity="1" id="svg_2" class="" fill-opacity="1"/><path d="M0,1075.7142856121063 C0,1075.7142856121063 0,535.7142856121063 0,535.7142856121063 C238.13333333333333,487.84761894543965 476.26666666666665,439.98095227877303 713,463.7142856121063 C949.7333333333333,487.4476189454396 1185.0666666666666,582.780952278773 1386,606.7142856121063 C1586.9333333333334,630.6476189454396 1753.4666666666667,583.180952278773 1920,535.7142856121063 C1920,535.7142856121063 1920,1075.7142856121063 1920,1075.7142856121063 z" fill="#ff9424" opacity="1" id="svg_3" class="" fill-opacity="1" stroke-width="1" stroke="none"/><path d="M2.384185791015625e-7,1081.4285714626312 C2.384185791015625e-7,1081.4285714626312 2.384185791015625e-7,811.4285714626312 2.384185791015625e-7,811.4285714626312 C182.4000002384186,784.3619047959646 364.80000023841865,757.2952381292979 603.0000002384186,751.4285714626312 C841.2000002384185,745.5619047959646 1135.2000002384184,760.8952381292978 1364.0000002384186,774.4285714626312 C1592.8000002384188,787.9619047959646 1756.4000002384187,799.6952381292979 1920.0000002384186,811.4285714626312 C1920.0000002384186,811.4285714626312 1920.0000002384186,1081.4285714626312 1920.0000002384186,1081.4285714626312 z" fill="#ff8200" opacity="1" id="svg_4" class="" fill-opacity="1"/></g></svg>