<?xml version="1.0" encoding="utf-8"?>
<!-- Generator: Adobe Illustrator 27.4.0, SVG Export Plug-In . SVG Version: 6.00 Build 0)  -->
<svg version="1.1" xmlns="http://www.w3.org/2000/svg" xmlns:xlink="http://www.w3.org/1999/xlink" x="0px" y="0px"
	 viewBox="0 0 841.9 248.6" style="enable-background:new 0 0 841.9 248.6;" xml:space="preserve">
<style type="text/css">
	.st0{stroke:#FFFFFF;stroke-width:0.5567;stroke-miterlimit:10;}
	.st1{fill:#FFCF45;}
	.st2{fill:#FFFFFF;}
</style>

<g id="Laag_1">
	
		<rect x="43.4" y="94.5" transform="matrix(0.9334 -0.3589 0.3589 0.9334 -33.3065 25.1843)" class="st1" width="15.6" height="15.6"/>
	
		<rect x="31.3" y="124" transform="matrix(0.9334 -0.3589 0.3589 0.9334 -43.1355 31.2219)" class="st1" width="62.4" height="15.6"/>
	
		<rect x="23.2" y="153.5" transform="matrix(0.9334 -0.3589 0.3589 0.9334 -52.9648 37.2585)" class="st1" width="101.3" height="15.6"/>
	
		<rect x="15.1" y="183" transform="matrix(0.9332 -0.3592 0.3592 0.9332 -62.8387 43.3417)" class="st1" width="140.3" height="15.6"/>
	<path class="st2" d="M221.1,89c0,22.3-14.5,34.1-37.5,34.1h-35.9V28h36.2c22.7,0,37.2,11.8,37.2,34.1V89z M204.9,62.1
		c0-13.1-8.2-20.1-21.1-20.1h-20v67h19.7c13.2,0,21.3-6.9,21.3-20V62.1z"/>
	<path class="st2" d="M343,96.7c0,17.8-11.6,26.8-29.5,26.8c-17.8,0-29.5-9-29.5-26.8V78.3c0-17.8,11.7-26.8,29.6-26.8
		c17.8,0,29.3,9,29.3,26.8V96.7z M328.1,77.4c0-8.7-5.7-12.9-14.4-12.9c-8.8,0-14.5,4.2-14.5,12.9v20.3c0,8.7,5.8,12.9,14.4,12.9
		c8.9,0,14.5-4.2,14.5-12.9V77.4z"/>
	<path class="st2" d="M485.8,100.1c-1.3,15.3-12.2,23.4-29.3,23.4c-17.9,0-29.6-9.3-29.6-26.9V78.3c0-17.8,11.7-26.8,29.6-26.8
		c17.8,0,29.3,9,29.3,26.8v13.9h-43.9v5.4c0,8.1,5.1,13.1,14.5,13.1c9.4,0,13.5-4.4,14.3-10.5H485.8z M441.9,80.7h28.9v-3.4
		c0-8.7-5.7-12.9-14.4-12.9c-8.7,0-14.5,4.2-14.5,12.9V80.7z"/>
	<path class="st2" d="M569.9,25.4h14.9v15.9h-14.9V25.4z M569.9,51.7h14.9v71.9h-14.9V51.7z"/>
	<path class="st2" d="M659.4,100.1c-1.3,15.3-12.2,23.4-29.3,23.4c-17.9,0-29.6-9.3-29.6-26.9V78.3c0-17.8,11.7-26.8,29.6-26.8
		c17.8,0,29.3,9,29.3,26.8v13.9h-43.9v5.4c0,8.1,5.1,13.1,14.5,13.1c9.4,0,13.5-4.4,14.3-10.5H659.4z M615.6,80.7h28.9v-3.4
		c0-8.7-5.7-12.9-14.4-12.9c-8.7,0-14.5,4.2-14.5,12.9V80.7z"/>
	<polygon class="st2" points="545.5,51.6 526.1,106.1 506.8,51.6 506.8,51.6 492.2,57.2 516.4,123.6 534.9,123.6 561.1,51.6 	"/>
	<path class="st2" d="M249.6,61.1l-2.5-9.4l-11.4,4.4l-0.1,67.5h15.2V77.9c0-9.1,9.3-14.3,25.7-11.8V52.3
		C265.9,50,255.8,53.4,249.6,61.1"/>
	<path class="st2" d="M389.3,51.5c-8.8,0-15.9,2.9-20.6,8.5l-2.5-8.3l-11.4,4.4l0.1,67.5h15.2V77.9c0-8.9,6.2-13.2,15.1-13.2
		c8.9,0,14.5,4,14.5,12.8v46.1h15.2v-45C415.1,60.4,405,51.5,389.3,51.5"/>
	<polygon class="st2" points="756.2,51.7 741.5,104.5 727.1,51.7 727,51.7 709.8,58.3 697.1,104.5 682.5,51.7 682.4,51.7 668,57.2 
		687.5,123.5 705.1,123.5 718.7,75 732.7,123.5 750.1,123.5 771.2,51.7 	"/>
</g>
<g id="Laag_3">
</g>
<g id="Laag_4">
	<g>
		<path class="st2" d="M449.7,176.4c0-9.4,5.7-14.7,15.4-14.7c6.1,0,10.7,2.1,13.4,6v-24h3.5v59.2h-2.8l-0.5-5.8
			c-2.6,4.2-7.4,6.6-13.7,6.6c-9.7,0-15.4-5.3-15.4-14.7V176.4z M453.2,189.2c0,7.3,4.7,11.4,12.3,11.4c7.8,0,13-4.5,13-12.1v-11.8
			c0-7.6-5-12.1-13-12.1c-7.6,0-12.3,4.2-12.3,11.4V189.2z"/>
		<path class="st2" d="M506.9,179.8c6,0,10.8,1.6,13.5,5v-9.4c0-7.2-4.6-10.7-11.8-10.7c-7.4,0-11.5,2.8-11.5,9.7h-3.5
			c0-8.7,5.5-12.6,15-12.6c9.4,0,15.3,4.5,15.3,13.8v27.4h-2.8l-0.4-4.8c-2.6,3.7-7.5,5.6-13.8,5.6c-9.6,0-15.3-3.7-15.3-12
			C491.6,183.5,497.3,179.8,506.9,179.8z M507.4,200.7c7.6,0,13-3.2,13-9c0-5.8-5.4-9-13-9c-7.6,0-12.3,2.7-12.3,9
			C495.1,198,499.8,200.7,507.4,200.7z"/>
		<path class="st2" d="M555.3,184.8l-8.9-1.8c-6.6-1.2-10.6-4.5-10.6-10.6c0-7,5-10.8,15.2-10.8c10,0,14.9,4.1,14.9,12.2v0.4h-3.4
			V174c0-6.2-3.6-9.4-11.4-9.4c-8,0-11.7,2.8-11.7,7.8c0,4.4,2.7,6.7,7.8,7.7l9,1.8c6.6,1.4,10.7,4.6,10.7,10.5
			c0,7.5-6,11.4-16,11.4c-10.2,0-16.2-4.1-16.2-12.2v-0.4h3.5v0.2c0,6.3,4.6,9.4,12.6,9.4c7.9,0,12.5-2.8,12.5-8.2
			C563.4,188.1,560.3,185.7,555.3,184.8z"/>
		<path class="st2" d="M606.6,202.9v-27.3c0-7.6-4.7-10.9-12.3-10.9c-7.6,0-13,3.9-13,11.4v26.7h-3.5v-59.2h3.5v23.8
			c2.7-3.8,7.4-5.8,13.4-5.8c9.4,0,15.4,4.4,15.4,14.1v27.1H606.6z"/>
		<path class="st2" d="M654.3,189c0,9.4-5.7,14.7-15.4,14.7c-6.2,0-11-2.2-13.6-6.3l-0.5,5.5H622v-59.2h3.5v24.1
			c2.6-3.9,7.4-6.1,13.4-6.1c9.7,0,15.4,5.3,15.4,14.7V189z M650.8,176.2c0-7.3-4.7-11.4-12.3-11.4c-7.9,0-13,4.5-13,12.1v11.8
			c0,7.6,5,12.1,13,12.1c7.6,0,12.3-4.2,12.3-11.4V176.2z"/>
		<path class="st2" d="M696.9,189c0,9.8-6.4,14.7-16.2,14.7c-9.7,0-16.1-5-16.1-14.7v-12.6c0-9.8,6.4-14.7,16.2-14.7
			c9.8,0,16.2,5,16.2,14.7V189z M693.4,176.2c0-7.6-5-11.4-12.6-11.4c-7.6,0-12.6,3.8-12.6,11.4v13c0,7.6,5,11.4,12.6,11.4
			c7.7,0,12.7-3.8,12.7-11.4V176.2z"/>
		<path class="st2" d="M720.9,179.8c6,0,10.8,1.6,13.5,5v-9.4c0-7.2-4.6-10.7-11.8-10.7c-7.4,0-11.5,2.8-11.5,9.7h-3.5
			c0-8.7,5.5-12.6,15-12.6c9.4,0,15.3,4.5,15.3,13.8v27.4h-2.8l-0.4-4.8c-2.6,3.7-7.5,5.6-13.8,5.6c-9.6,0-15.3-3.7-15.3-12
			C705.6,183.5,711.3,179.8,720.9,179.8z M721.4,200.7c7.6,0,13-3.2,13-9c0-5.8-5.4-9-13-9s-12.3,2.7-12.3,9
			C709.1,198,713.8,200.7,721.4,200.7z"/>
		<path class="st2" d="M749.8,162.5h2.8l0.5,6c3.4-5.7,10.3-7.8,17-6.2v3.2c-9.7-2.1-16.7,2.7-16.7,10.6v26.7h-3.5V162.5z"/>
		<path class="st2" d="M776.4,176.4c0-9.4,5.7-14.7,15.4-14.7c6.1,0,10.7,2.1,13.4,6v-24h3.5v59.2h-2.8l-0.5-5.8
			c-2.6,4.2-7.4,6.6-13.7,6.6c-9.7,0-15.4-5.3-15.4-14.7V176.4z M779.9,189.2c0,7.3,4.7,11.4,12.3,11.4c7.8,0,13-4.5,13-12.1v-11.8
			c0-7.6-5-12.1-13-12.1c-7.6,0-12.3,4.2-12.3,11.4V189.2z"/>
	</g>
</g>
</svg>
