<?xml version="1.0" encoding="utf-8"?>
<!-- Generator: Adobe Illustrator 27.8.1, SVG Export Plug-In . SVG Version: 6.00 Build 0)  -->
<svg version="1.1" id="Laag_1" xmlns="http://www.w3.org/2000/svg" xmlns:xlink="http://www.w3.org/1999/xlink" x="0px" y="0px"
	 viewBox="0 0 500 457" style="enable-background:new 0 0 500 457;" xml:space="preserve">
<style type="text/css">
	.st0{fill:#BCBCBC;}
</style>
<g>
	<path class="st0" d="M411.8,9H92.2C61.8,9,37,33.8,37,64.2v319.6c0,30.4,24.8,55.2,55.2,55.2h319.6c30.4,0,55.2-24.8,55.2-55.2
		V64.2C467,33.8,442.2,9,411.8,9z M92.2,38.1h319.6c14.4,0,26.1,11.7,26.1,26.1v132.4l-54.7-54.7c-9.7-9.7-25.4-9.6-35.1,0.2
		L244.2,246l-46.9-46.9c-9.7-9.7-25.4-9.6-35.1,0.2l-96.1,96.1V64.2C66.1,49.8,77.8,38.1,92.2,38.1z"/>
	<circle class="st0" cx="172.4" cy="134.7" r="40.5"/>
</g>
<g>
</g>
<g>
</g>
<g>
</g>
<g>
</g>
<g>
</g>
<g>
</g>
<g>
</g>
<g>
</g>
<g>
</g>
<g>
</g>
<g>
</g>
<g>
</g>
<g>
</g>
<g>
</g>
<g>
</g>
</svg>
