<?xml version="1.0" encoding="utf-8"?>
<!-- Generator: Adobe Illustrator 27.7.0, SVG Export Plug-In . SVG Version: 6.00 Build 0)  -->
<svg version="1.1" id="Capa_2" xmlns="http://www.w3.org/2000/svg" xmlns:xlink="http://www.w3.org/1999/xlink" x="0px" y="0px"
	 viewBox="0 0 2122 1196.9" style="enable-background: new 0 0 2122 1196.9" xml:space="preserve">
<style type="text/css">
	.st0{fill:#BCBCBB;}
</style>
<path class="st0" d="M 26.6 976.2 v 132.3 c 0 22.2 18 40.2 40.2 40.2 h 1987.7 c 22.2 0 40.2 -18 40.2 -40.2 V 724.1 c 0 -22.2 -18 -40.2 -40.2 -40.2 H 66.7 c -22.2 0 -40.2 18 -40.2 40.2 v 41.4 V 976.2 z M 1872.7 765 v 210.8 c -0.1 12.6 -9.8 22.5 -21.8 22.5 c -12 0 -21.7 -9.9 -21.7 -22.1 V 765.5 c 0 -12.2 9.7 -22.1 21.7 -22.1 C 1862.9 743.3 1872.6 753.2 1872.7 765 z M 1686.2 765 v 154 c -0.1 12.6 -9.8 22.5 -21.8 22.5 c -12 0 -21.7 -9.9 -21.7 -22.1 v -154 c 0 -12.2 9.7 -22.1 21.7 -22.1 C 1676.4 743.3 1686.2 753.2 1686.2 765 z M 1489.7 765 v 210.8 c -0.1 12.6 -9.8 22.5 -21.8 22.5 c -12 0 -21.7 -9.9 -21.7 -22.1 V 765.5 c 0 -12.2 9.7 -22.1 21.7 -22.1 C 1479.9 743.3 1489.7 753.2 1489.7 765 z M 1306.4 765 v 154 c -0.1 12.6 -9.8 22.5 -21.8 22.5 c -12 0 -21.7 -9.9 -21.7 -22.1 v -154 c 0 -12.2 9.7 -22.1 21.7 -22.1 C 1296.6 743.3 1306.3 753.2 1306.4 765 z M 1109.9 765 v 210.8 c -0.1 12.6 -9.8 22.5 -21.8 22.5 c -12 0 -21.7 -9.9 -21.7 -22.1 V 765.5 c 0 -12.2 9.7 -22.1 21.7 -22.1 C 1100.1 743.3 1109.8 753.2 1109.9 765 z M 930.5 765 v 154 c -0.1 12.6 -9.8 22.5 -21.8 22.5 c -12 0 -21.7 -9.9 -21.7 -22.1 v -154 c 0 -12.2 9.7 -22.1 21.7 -22.1 C 920.7 743.3 930.4 753.2 930.5 765 z M 734 765 v 210.8 c -0.1 12.6 -9.8 22.5 -21.8 22.5 c -12 0 -21.7 -9.9 -21.7 -22.1 V 765.5 c 0 -12.2 9.7 -22.1 21.7 -22.1 C 724.2 743.3 733.9 753.2 734 765 z M 567.7 765 v 154 c -0.1 12.6 -9.8 22.5 -21.8 22.5 c -12 0 -21.7 -9.9 -21.7 -22.1 v -154 c 0 -12.2 9.7 -22.1 21.7 -22.1 C 557.9 743.3 567.6 753.2 567.7 765 z M 391.3 766.6 v 210.8 c -0.2 12.7 -9.9 22.6 -21.9 22.6 c -12 0 -21.7 -9.9 -21.7 -22.1 V 767.1 c 0 -12.2 9.7 -22.1 21.7 -22.1 C 381.4 745 391.1 754.9 391.3 766.6 z M 201.3 743.3 c 12 0 21.7 9.9 21.8 21.7 v 154 c -0.1 12.6 -9.8 22.5 -21.8 22.5 c -12 0 -21.7 -9.9 -21.7 -22.1 v -154 C 179.6 753.2 189.3 743.3 201.3 743.3 z"/>
<rect x="1022.9" y="-669.4" transform="matrix(1.7,-1,1,1.7,847.1,1279.7)" class="st0" width="81.1" height="1771.4"/>
<path class="st0" d="M 2090.8 235.2 l -261.6 151 c -14.6 8.4 -32.8 -2.1 -32.8 -18.9 V 65.2 c 0 -16.8 18.2 -27.3 32.8 -18.9 l 261.6 151 C 2105.4 205.8 2105.4 226.8 2090.8 235.2 z"/>
<path class="st0" d="M 36 197.4 l 261.6 -151 c 14.6 -8.4 32.8 2.1 32.8 18.9 v 302.1 c 0 16.8 -18.2 27.3 -32.8 18.9 L 36 235.2 C 21.5 226.8 21.5 205.8 36 197.4 z"/>
<g>
</g>
<g>
</g>
<g>
</g>
<g>
</g>
<g>
</g>
<g>
</g>
</svg>
