<?xml version="1.0" encoding="utf-8"?>
<!-- Generator: Adobe Illustrator 27.7.0, SVG Export Plug-In . SVG Version: 6.00 Build 0)  -->
<svg version="1.1" xmlns="http://www.w3.org/2000/svg" xmlns:xlink="http://www.w3.org/1999/xlink" x="0px" y="0px"
	 viewBox="0 0 410 359" style="enable-background:new 0 0 410 359;" xml:space="preserve">
<style type="text/css">
	.st0{opacity:0.46;fill:#DDDDDD;}
	.st1{display:none;}
	.st2{fill:#BCBCBC;}
	.st3{fill:none;stroke:#BCBCBC;stroke-width:28;stroke-miterlimit:10;}
</style>
<g id="Laag_3">
	<polygon class="st0" points="231.4,55.4 266,55.4 266,89.9 300.4,89.9 300.4,124.5 334.9,124.5 335,193.5 300.5,193.5 300.5,227.5 
		266,227.5 266,262.5 231.4,262.5 	"/>
</g>
<g id="Laag_2">
	<g class="st1">
		
			<image style="display:inline;overflow:visible;" width="5" height="8" xlink:href="4394A074.png"  transform="matrix(72 0 0 72 -94 -161)">
		</image>
	</g>
	<polygon class="st2" points="91,55.2 194.7,158.8 91,262.5 	"/>
</g>
<g id="Laag_4">
	<polygon class="st2" points="231.4,90.1 266,89.9 266,124.4 300.4,124.5 300.5,193.5 266,193.5 266,227.5 231.4,227.5 	"/>
	<path class="st3" d="M353.6,290H55.4C37.6,290,23,275.4,23,257.6V56.4C23,38.6,37.6,24,55.4,24h298.2c17.8,0,32.4,14.6,32.4,32.4
		v201.2C386,275.4,371.4,290,353.6,290z"/>
	<path class="st2" d="M232.8,348h-55.6c-0.7,0-1.2-0.5-1.2-1.2v-55.6c0-0.7,0.5-1.2,1.2-1.2h55.6c0.7,0,1.2,0.5,1.2,1.2v55.6
		C234,347.5,233.5,348,232.8,348z"/>
	<g>
	</g>
	<g>
	</g>
	<g>
	</g>
	<g>
	</g>
	<g>
	</g>
	<g>
	</g>
	<g>
	</g>
	<g>
	</g>
	<g>
	</g>
	<g>
	</g>
	<g>
	</g>
	<g>
	</g>
	<g>
	</g>
	<g>
	</g>
	<g>
	</g>
</g>
</svg>
