<?xml version="1.0" encoding="utf-8"?>
<!-- Generator: Adobe Illustrator 27.8.1, SVG Export Plug-In . SVG Version: 6.00 Build 0)  -->
<svg version="1.1" id="Laag_1" xmlns="http://www.w3.org/2000/svg" xmlns:xlink="http://www.w3.org/1999/xlink" x="0px" y="0px"
	 viewBox="0 0 500 457" style="enable-background: new 0 0 500 457" xml:space="preserve">
<style type="text/css">
	.st0{fill-rule:evenodd;clip-rule:evenodd;fill:#BCBCBC;}
	.st1{fill:#BCBCBC;}
</style>
<g>
	<g>
		<path class="st0" d="M 260 156.1 c 63.3 0 114.7 51.3 114.7 114.7 S 323.4 385.4 260 385.4 s -114.7 -51.3 -114.7 -114.7 S 196.7 156.1 260 156.1 L 260 156.1 z M 203.3 272.2 c -4.2 -4.7 -3.9 -11.9 0.8 -16.1 c 4.7 -4.2 11.9 -3.9 16.1 0.8 l 28.6 31.6 l 61.7 -63.8 c 4.4 -4.5 11.6 -4.6 16.2 -0.2 c 4.5 4.4 4.6 11.6 0.2 16.2 l -70.2 72.5 l 0 0 c -0.2 0.2 -0.3 0.3 -0.5 0.5 c -4.7 4.2 -11.9 3.9 -16.1 -0.8 L 203.3 272.2 L 203.3 272.2 z"/>
	</g>
	<g>
		<g>
			<path class="st1" d="M 345.9 116.2 H 173.5 c -3.9 0 -6.6 -2.6 -6.6 -6.6 V 72.1 c 0 -16.4 15.1 -30.3 33.6 -30.3 h 17.1 c 3.3 -20.4 21.1 -36.2 42.8 -36.2 c 21.7 0 39.5 15.8 42.8 36.2 h 17.1 c 18.4 0 33.6 13.2 33.6 30.3 v 37.5 C 352.5 113.6 349.8 116.2 345.9 116.2 z M 180.1 103.1 H 340 V 72.1 c 0 -9.2 -9.2 -17.1 -20.4 -17.1 h -23 c -3.9 0 -6.6 -2.6 -6.6 -6.6 c 0 -16.4 -13.2 -29.6 -29.6 -29.6 c -16.4 0 -29.6 13.2 -29.6 29.6 c 0 3.9 -2.6 6.6 -6.6 6.6 h -23 c -11.2 0 -20.4 7.2 -20.4 17.1 v 30.9 H 180.1 z"/>
		</g>
		<g>
			<circle class="st1" cx="259.7" cy="49.1" r="9.9"/>
		</g>
		<g>
			<path class="st1" d="M 416.9 450 H 102.5 c -3.9 0 -6.6 -2.6 -6.6 -6.6 V 84.6 c 0 -3.9 2.6 -6.6 6.6 -6.6 h 68.4 c 3.9 0 6.6 2.6 6.6 6.6 s -2.6 6.6 -6.6 6.6 H 109 v 345 h 301.3 v -345 h -62.5 c -3.9 0 -6.6 -2.6 -6.6 -6.6 s 2.6 -6.6 6.6 -6.6 h 69.1 c 3.9 0 6.6 2.6 6.6 6.6 v 358.1 C 423.5 446.7 420.9 450 416.9 450 z"/>
		</g>
	</g>
</g>
<g>
</g>
<g>
</g>
<g>
</g>
<g>
</g>
<g>
</g>
<g>
</g>
<g>
</g>
<g>
</g>
<g>
</g>
<g>
</g>
<g>
</g>
<g>
</g>
<g>
</g>
<g>
</g>
<g>
</g>
</svg>
