<?xml version="1.0" encoding="utf-8"?>
<!-- Generator: Adobe Illustrator 27.8.1, SVG Export Plug-In . SVG Version: 6.00 Build 0)  -->
<svg version="1.1" id="Laag_1" xmlns="http://www.w3.org/2000/svg" xmlns:xlink="http://www.w3.org/1999/xlink" x="0px" y="0px"
	 viewBox="0 0 500 457" style="enable-background:new 0 0 500 457;" xml:space="preserve">
<style type="text/css">
	.st0{fill:#BCBCBC;}
</style>
<g>
	<g>
		<path class="st0" d="M170.4,62.1c0.1-0.1-35.8-41.9-80.8-41.4c-43.7,0.5-79,41.2-79,41.2c0.1,0.1,0.1,0.1,0.1,0.1
			c-0.1,0.1,35.1,40.9,78.9,41.4C134.6,104,170.4,62.2,170.4,62.1C170.5,62.2,170.4,62.2,170.4,62.1z M90.5,95.4
			c-18.2,0-32.9-14.7-32.9-32.9s14.7-32.9,32.9-32.9s32.9,14.7,32.9,32.9S108.7,95.4,90.5,95.4z"/>
		<circle class="st0" cx="90.5" cy="62.5" r="20.1"/>
	</g>
</g>
<path class="st0" d="M473.7,432.1v-11h-10.7v-22.5h-2.5c0-0.2,0-0.2,0-0.4V70.3c0-5.6-4.6-10.3-10.3-10.3S440,64.6,440,70.3v16.5
	H224.4V70.3c0-5.6-4.6-10.3-10.3-10.3c-5.6,0-10.3,4.6-10.3,10.3v328.3c0,0.2,0,0.2,0,0.4h-2.5v22.5h-10.7v10.7h46.7v-10.7h-10.7v0
	v-0.4v-22.5h-2.5c0-0.2,0-0.2,0-0.4v-22.7l107.9-53.7L440,376.3v22.3c0,0.2,0,0.2,0,0.4h-2.5v22.5h-10.7v10.7L473.7,432.1z
	 M415.4,103.2l-82.9,41.5l-82.7-41.5H415.4z M224.4,109.2l89.3,44.9l-89.3,44.6V109.2z M224.4,356.9v-89.5l89.3,44.9L224.4,356.9z
	 M249.8,261.8h165.4l-82.7,41.3L249.8,261.8z M440,356.7l-88.9-44.6l88.9-44.6V356.7z M440,236.8H224.4v-19.6l107.7-53.8L440,217.9
	V236.8z M440,198.3l-88.9-44.4l88.9-44.6V198.3z"/>
</svg>
