<?xml version="1.0" encoding="utf-8"?>
<!-- Generator: Adobe Illustrator 27.8.1, SVG Export Plug-In . SVG Version: 6.00 Build 0)  -->
<svg version="1.1" id="Laag_1" xmlns="http://www.w3.org/2000/svg" xmlns:xlink="http://www.w3.org/1999/xlink" x="0px" y="0px"
	 viewBox="0 0 500 457" style="enable-background:new 0 0 500 457;" xml:space="preserve">
<style type="text/css">
	.st0{fill:#BCBCBC;}
	.st1{fill-rule:evenodd;clip-rule:evenodd;fill:#BCBCBC;}
</style>
<g>
	<g>
		<path class="st0" d="M170.4,62.1c0.1-0.1-35.8-41.9-80.8-41.4c-43.7,0.5-79,41.2-79,41.2c0.1,0.1,0.1,0.1,0.1,0.1
			c-0.1,0.1,35.1,40.9,78.9,41.4C134.6,104,170.4,62.2,170.4,62.1C170.5,62.2,170.4,62.2,170.4,62.1z M90.5,95.4
			c-18.2,0-32.9-14.7-32.9-32.9s14.7-32.9,32.9-32.9s32.9,14.7,32.9,32.9S108.7,95.4,90.5,95.4z"/>
		<circle class="st0" cx="90.5" cy="62.5" r="20.1"/>
	</g>
</g>
<g transform="matrix(1,0,0,1,-336,-48)">
	<g>
		<path class="st1" d="M549.3,477.6h-98c-5.4,0-9.8-4.4-9.8-9.8V281.5h-29.4c-5.4,0-9.8-4.4-9.8-9.8v-19.6c0-2.8,1.2-5.4,3.2-7.3
			l196-176.4c3.7-3.4,9.4-3.4,13.1,0l196,176.4c2.1,1.9,3.2,4.5,3.2,7.3v19.6c0,5.4-4.4,9.8-9.8,9.8h-29.4v186.2
			c0,5.4-4.4,9.8-9.8,9.8c0,0-69.4,0-98,0c-5.4,0-9.8-4.4-9.8-9.8c0,0,0-107.4,0-137.2c0-5.4-4.4-9.8-9.8-9.8c-18.8,0-59.6,0-78.4,0
			c-5.4,0-9.8,4.4-9.8,9.8c0,29.9,0,137.2,0,137.2C559.1,473.2,554.7,477.6,549.3,477.6z"/>
	</g>
</g>
<g>
</g>
<g>
</g>
<g>
</g>
<g>
</g>
<g>
</g>
<g>
</g>
<g>
</g>
<g>
</g>
<g>
</g>
<g>
</g>
<g>
</g>
<g>
</g>
<g>
</g>
<g>
</g>
<g>
</g>
</svg>
